<?xml version="1.0" encoding="UTF-8"?>
<svg width="106px" height="29px" viewBox="0 0 106 29" version="1.1" xmlns="http://www.w3.org/2000/svg" xmlns:xlink="http://www.w3.org/1999/xlink">
    <title>brand/logo/logo tekus white</title>
    <g id="mobile-home" stroke="none" stroke-width="1" fill="none" fill-rule="evenodd">
        <g id="Galaxy-S10-Copy-15" transform="translate(-20.000000, -20.000000)">
            <g id="brand/logo/logo-tekus-white" transform="translate(20.000000, 20.000000)">
                <path d="M2.55671795,9.723 L0,9.723 L0,5.073 L2.55671795,5.073 L2.55671795,0.126157895 L7.87692308,0.126157895 L7.87692308,5.073 L12.7967179,5.073 L12.7967179,9.723 L7.87692308,9.723 L7.87692308,20.6508947 C7.87692308,22.9972105 8.71876923,23.8498421 10.6699487,23.8498421 C11.3362051,23.8498421 11.9565128,23.8072105 12.5308718,23.6793158 L12.5308718,28.2440526 C11.777641,28.4145789 10.8471795,28.4998421 9.78215385,28.4998421 C4.95097436,28.4998421 2.55671795,26.0682632 2.55671795,21.2051053 L2.55671795,9.723 Z" id="Fill-1" fill="#FF9E1B"></path>
                <path d="M32.2154667,14.85 C32.2154667,13.5710526 31.6394667,12.4610526 30.5317744,11.5657895 C29.422441,10.6278947 28.1375179,10.1589474 26.5851077,10.1589474 C24.9440821,10.1589474 23.4835692,10.6278947 22.2856205,11.5231579 C21.0893128,12.4184211 20.4230564,13.5284211 20.2901333,14.85 L32.2154667,14.85 Z M14.8813128,17.1536842 C14.8813128,13.7415789 15.9890051,11.0115789 18.1633641,8.92105263 C20.3787487,6.83052632 23.1717744,5.80736842 26.5851077,5.80736842 C29.8212103,5.80736842 32.4813128,6.83052632 34.5211077,8.92105263 C36.6052103,11.0115789 37.6242872,13.5710526 37.6242872,16.6421053 C37.6242872,17.2815789 37.5799795,17.8784211 37.5356718,18.4342105 L20.1572103,18.4342105 C20.334441,21.8463158 22.9502359,24.0631579 26.8969026,24.0631579 C29.2009026,24.0631579 31.1963897,23.2531579 32.9260308,21.5905263 L36.1178256,24.5763158 C33.5906462,27.1342105 30.4858256,28.4147368 26.7180308,28.4147368 C23.2177231,28.4147368 20.334441,27.39 18.1633641,25.3863158 C15.9890051,23.3810526 14.8813128,20.6936842 14.8813128,17.3242105 L14.8813128,17.1536842 Z" id="Fill-3" fill="#FF9E1B"></path>
                <path d="M64.3275487,5.76489474 L69.6920615,5.76489474 L69.6920615,18.9459474 C69.6920615,22.1875263 71.5989333,23.7648947 74.5675487,23.7648947 C77.5394462,23.7648947 79.4446769,22.1448947 79.4446769,18.9017368 L79.4446769,5.76489474 L84.8075487,5.76489474 L84.8075487,19.2443684 C84.8075487,22.2301579 83.8344205,24.5322632 81.883241,26.1112105 C79.9320615,27.6885789 77.4934974,28.4575263 74.523241,28.4575263 C71.5529846,28.4575263 69.1144205,27.6885789 67.2091897,26.1112105 C65.3023179,24.5322632 64.3275487,22.3154211 64.3275487,19.3722632 L64.3275487,5.76489474 Z" id="Fill-5" fill="#F4364C"></path>
                <path d="M90.7940103,21.3339474 C91.8147282,22.8702632 93.9858051,24.0213158 96.6918564,24.0213158 C99.483241,24.0213158 100.679549,22.9981579 100.679549,21.675 C100.679549,20.9502632 100.147856,20.3518421 99.3946256,19.9681579 C98.907241,19.6697368 97.9767795,19.3713158 97.3121641,19.1581579 C96.6442667,18.945 95.3166769,18.5613158 94.5634462,18.2628947 C90.971241,17.025 89.0660103,15.2771053 89.0660103,12.2060526 C89.0660103,10.2007895 89.819241,8.66605263 91.3273436,7.51342105 C92.8797538,6.36236842 94.7390359,5.76552632 96.9577026,5.76552632 C100.10519,5.76552632 102.499446,6.83131579 104.183138,8.92184211 L101.212882,11.9502632 C100.238113,10.755 98.7743179,10.1581579 96.8674462,10.1581579 C95.2280615,10.1581579 94.1646769,10.9255263 94.1646769,12.0781579 C94.1646769,12.8028947 94.5634462,13.1865789 95.1837538,13.5702632 C95.5382154,13.7834211 96.4260103,14.1260526 97.0003692,14.3376316 C97.6649846,14.5097368 98.907241,14.9360526 99.7917538,15.2344737 C103.917292,16.6413158 105.779856,18.5613158 105.779856,21.6323684 C105.779856,25.5986842 102.675036,28.4581579 96.6016,28.4581579 C92.1248821,28.4581579 88.8001641,26.7939474 87.3806769,24.1065789 L90.7940103,21.3339474 Z" id="Fill-7" fill="#F4364C"></path>
                <polygon id="Fill-10" fill="#FF9E1B" points="41.0059487 28.4873684 46.1489231 28.4873684 46.1489231 0 41.0059487 0"></polygon>
                <polygon id="Fill-12" fill="#FF9E1B" points="51.2923897 13.6441579 51.2923897 11.1699474 51.2923897 8.69573684 53.8622359 8.69573684 56.4337231 8.69573684 56.4337231 11.1699474 56.4337231 13.6441579 53.8622359 13.6441579"></polygon>
                <polygon id="Fill-13" fill="#F4364C" points="56.4333949 8.69621053 56.4333949 6.222 56.4333949 3.74936842 59.0048821 3.74936842 61.5763692 3.74936842 61.5763692 6.222 61.5763692 8.69621053 59.0048821 8.69621053"></polygon>
                <polygon id="Fill-14" fill="#F4364C" points="59.0055385 28.4876842 56.4340513 28.4876842 56.4340513 26.0150526 56.4340513 23.5408421 59.0055385 23.5408421 61.5753846 23.5408421 61.5753846 26.0150526 61.5753846 28.4876842"></polygon>
                <polygon id="Fill-15" fill="#F4364C" points="46.1472821 18.5921053 51.2918974 18.5921053 51.2918974 13.6436842 46.1472821 13.6436842"></polygon>
                <polygon id="Fill-16" fill="#FF9E1B" points="51.2918974 23.5405263 56.4332308 23.5405263 56.4332308 18.5921053 51.2918974 18.5921053"></polygon>
            </g>
        </g>
    </g>
</svg>